<svg width="590" height="615" viewBox="0 0 590 615" fill="none" xmlns="http://www.w3.org/2000/svg">
<g clip-path="url(#clip0_3407_213)">
<path d="M589.519 95.9665C589.519 70.6356 579.46 46.3422 561.555 28.4306C543.65 10.519 519.366 0.456299 494.044 0.456299H95.0818C69.7604 0.456299 45.4761 10.519 27.5712 28.4306C9.6663 46.3422 -0.392578 70.6356 -0.392578 95.9665V519.664C-0.392578 532.206 2.07694 544.626 6.87497 556.214C11.673 567.802 18.7056 578.331 27.5712 587.2C36.4368 596.069 46.9618 603.104 58.5453 607.904C70.1288 612.704 82.5439 615.174 95.0818 615.174H494.044C506.582 615.174 518.997 612.704 530.581 607.904C542.164 603.104 552.689 596.069 561.555 587.2C570.42 578.331 577.453 567.802 582.251 556.214C587.049 544.626 589.519 532.206 589.519 519.664V95.9665Z" stroke="#8BDEE9" stroke-width="2"/>
<path d="M391.772 247.09C415.112 247.09 427.527 247.137 429.016 247.233C429.919 247.28 430.371 247.756 430.371 248.659V290.078C430.371 290.854 429.983 291.243 429.206 291.243H354.338C353.594 291.243 353.221 290.862 353.221 290.102V263.329C353.221 263.245 353.204 263.161 353.171 263.084C353.137 263.006 353.088 262.935 353.026 262.875C352.965 262.816 352.891 262.768 352.81 262.736C352.73 262.704 352.643 262.687 352.556 262.687H315.217C314.895 262.687 314.587 262.815 314.36 263.042C314.133 263.27 314.005 263.578 314.005 263.9V302.774C314.005 303.71 314.472 304.177 315.407 304.177H341.742C342.518 304.177 342.906 304.566 342.906 305.342V331.734C342.906 331.923 342.984 332.105 343.122 332.239C343.26 332.372 343.448 332.447 343.643 332.447H439.403C439.743 332.447 440.069 332.312 440.31 332.071C440.551 331.831 440.686 331.504 440.686 331.164V305.556C440.686 304.589 441.169 304.106 442.136 304.106H468.47C469.215 304.106 469.587 303.733 469.587 302.988V235.083C469.587 234.955 469.562 234.828 469.513 234.71C469.464 234.591 469.392 234.484 469.302 234.393C469.211 234.303 469.104 234.231 468.986 234.182C468.868 234.133 468.741 234.108 468.613 234.108H441.708C441.011 234.108 440.662 233.759 440.662 233.062V207.05C440.662 206.764 440.553 206.49 440.358 206.285C440.162 206.081 439.896 205.963 439.616 205.957C435.972 205.877 420.024 205.838 391.772 205.838C368.448 205.838 356.034 205.798 354.529 205.719C353.625 205.655 353.174 205.172 353.174 204.268V162.85C353.174 162.073 353.562 161.685 354.338 161.685H429.206C429.951 161.685 430.323 162.065 430.323 162.826V189.598C430.323 189.769 430.393 189.932 430.518 190.052C430.643 190.173 430.812 190.24 430.989 190.24H468.328C468.649 190.24 468.957 190.112 469.185 189.885C469.412 189.658 469.54 189.349 469.54 189.028V150.153C469.54 149.218 469.072 148.75 468.138 148.75H441.803C441.027 148.75 440.638 148.362 440.638 147.585V121.193C440.638 121.004 440.561 120.823 440.423 120.689C440.284 120.555 440.097 120.48 439.902 120.48H344.142C343.974 120.48 343.807 120.513 343.651 120.578C343.495 120.642 343.354 120.737 343.235 120.856C343.115 120.975 343.021 121.117 342.956 121.273C342.892 121.428 342.859 121.595 342.859 121.764V147.371C342.859 148.338 342.375 148.822 341.409 148.822H315.074C314.33 148.822 313.957 149.194 313.957 149.939V217.845C313.957 218.103 314.06 218.351 314.243 218.534C314.425 218.717 314.673 218.82 314.932 218.82H341.837C342.534 218.82 342.882 219.168 342.882 219.866V245.877C342.882 246.163 342.992 246.438 343.187 246.642C343.383 246.847 343.649 246.965 343.928 246.971C347.588 247.05 363.536 247.09 391.772 247.09Z" stroke="#8BDEE9" stroke-width="2"/>
<path d="M196.997 247.09C220.305 247.106 232.712 247.153 234.217 247.233C235.12 247.296 235.572 247.779 235.572 248.683L235.548 290.078C235.548 290.855 235.16 291.243 234.384 291.243L159.563 291.195C158.819 291.195 158.446 290.815 158.446 290.054V263.305C158.446 263.135 158.376 262.972 158.251 262.852C158.127 262.731 157.957 262.664 157.781 262.664L120.466 262.64C120.144 262.64 119.836 262.767 119.609 262.995C119.381 263.222 119.253 263.531 119.253 263.852L119.23 302.703C119.23 303.638 119.697 304.106 120.632 304.106L146.966 304.13C147.743 304.13 148.131 304.518 148.131 305.295L148.107 331.663C148.107 331.757 148.126 331.849 148.163 331.936C148.2 332.022 148.255 332.101 148.323 332.167C148.392 332.234 148.473 332.286 148.562 332.322C148.652 332.358 148.747 332.376 148.844 332.376L244.556 332.424C244.897 332.424 245.223 332.288 245.464 332.048C245.704 331.807 245.84 331.48 245.84 331.14V305.556C245.84 304.589 246.323 304.106 247.289 304.106H273.624C274.369 304.106 274.741 303.733 274.741 302.988L274.765 235.13C274.765 234.872 274.662 234.624 274.479 234.441C274.297 234.258 274.049 234.155 273.79 234.155L246.909 234.132C246.212 234.132 245.863 233.783 245.863 233.086V207.098C245.863 206.812 245.754 206.537 245.559 206.333C245.363 206.128 245.097 206.01 244.818 206.004C241.173 205.925 225.241 205.877 197.021 205.861C173.697 205.846 161.29 205.798 159.801 205.719C158.898 205.655 158.446 205.172 158.446 204.268L158.47 162.874C158.47 162.097 158.858 161.708 159.635 161.708L234.455 161.756C235.2 161.756 235.572 162.136 235.572 162.897L235.548 189.646C235.548 189.816 235.618 189.979 235.743 190.1C235.868 190.22 236.037 190.288 236.214 190.288L273.529 190.312C273.85 190.312 274.159 190.184 274.386 189.956C274.613 189.729 274.741 189.421 274.741 189.099L274.765 150.248C274.765 149.313 274.297 148.845 273.362 148.845H247.052C246.275 148.845 245.887 148.457 245.887 147.68L245.911 121.288C245.911 121.099 245.833 120.918 245.695 120.784C245.557 120.65 245.37 120.575 245.174 120.575L149.462 120.528C149.122 120.528 148.795 120.663 148.555 120.904C148.314 121.144 148.179 121.471 148.179 121.812L148.155 147.419C148.155 148.386 147.672 148.869 146.705 148.869L120.394 148.845C119.65 148.845 119.277 149.218 119.277 149.963L119.253 217.821C119.253 217.949 119.279 218.076 119.328 218.194C119.377 218.312 119.448 218.42 119.539 218.51C119.629 218.601 119.737 218.673 119.855 218.722C119.973 218.771 120.1 218.796 120.228 218.796L147.109 218.82C147.806 218.82 148.155 219.168 148.155 219.866L148.131 245.854C148.131 246.139 148.24 246.414 148.436 246.619C148.631 246.823 148.897 246.941 149.177 246.947C152.837 247.027 168.777 247.074 196.997 247.09Z" stroke="#8BDEE9" stroke-width="2"/>
<path d="M119.515 427.672C119.531 459.374 119.538 475.519 119.538 476.105C119.554 477.04 120.03 477.508 120.965 477.508L136.865 477.437C137.594 477.437 137.958 477.793 137.958 478.507V493.914C137.958 494.086 137.992 494.256 138.058 494.414C138.124 494.573 138.22 494.717 138.341 494.838C138.463 494.96 138.607 495.056 138.765 495.122C138.924 495.188 139.094 495.222 139.266 495.222H198.708C199.58 495.222 200.016 494.786 200.016 493.914V478.459C200.016 477.762 200.372 477.413 201.085 477.413H217.699C218.586 477.413 219.03 476.969 219.03 476.081V433.474C219.03 432.634 218.602 432.214 217.746 432.214H201.346C200.507 432.214 200.079 431.786 200.063 430.93C200.063 430.66 200.063 429.559 200.063 427.625C200.063 425.675 200.063 424.574 200.063 424.32C200.079 423.464 200.507 423.036 201.346 423.036L217.746 423.012C218.602 423.012 219.03 422.592 219.03 421.752L218.982 379.145C218.982 378.257 218.538 377.813 217.651 377.813L201.038 377.837C200.324 377.837 199.968 377.488 199.968 376.791L199.944 361.336C199.944 360.464 199.508 360.028 198.637 360.028L139.194 360.1C138.848 360.1 138.515 360.237 138.27 360.483C138.025 360.728 137.887 361.061 137.887 361.407L137.911 376.815C137.911 377.528 137.546 377.884 136.818 377.884L120.917 377.813C119.982 377.813 119.507 378.289 119.491 379.24C119.491 379.826 119.499 395.97 119.515 427.672Z" stroke="#0B5F76" stroke-width="2"/>
<path d="M370.334 476.01C370.334 476.25 370.429 476.48 370.599 476.649C370.768 476.819 370.998 476.914 371.237 476.914H387.114C387.354 476.914 387.583 477.009 387.753 477.178C387.922 477.348 388.017 477.578 388.017 477.817V494.366C388.017 494.605 388.112 494.835 388.282 495.005C388.451 495.174 388.681 495.269 388.92 495.269H450.312C450.552 495.269 450.781 495.174 450.951 495.005C451.12 494.835 451.215 494.605 451.215 494.366V478.435C451.215 478.196 451.31 477.966 451.48 477.797C451.649 477.627 451.879 477.532 452.118 477.532H468.803C469.043 477.532 469.272 477.437 469.442 477.267C469.611 477.098 469.706 476.868 469.706 476.628V451.354C469.706 451.114 469.611 450.885 469.442 450.715C469.272 450.546 469.043 450.45 468.803 450.45H445.44C445.2 450.45 444.97 450.546 444.801 450.715C444.632 450.885 444.536 451.114 444.536 451.354V468.093C444.536 468.332 444.441 468.562 444.272 468.732C444.103 468.901 443.873 468.996 443.633 468.996H396.431C396.191 468.996 395.962 468.901 395.792 468.732C395.623 468.562 395.528 468.332 395.528 468.093V423.749C395.528 423.51 395.623 423.28 395.792 423.111C395.962 422.941 396.191 422.846 396.431 422.846H450.312C450.431 422.846 450.548 422.823 450.658 422.777C450.767 422.732 450.867 422.665 450.951 422.581C451.035 422.497 451.101 422.398 451.146 422.288C451.192 422.179 451.215 422.061 451.215 421.942V397.239C451.215 396.999 451.12 396.769 450.951 396.6C450.781 396.43 450.552 396.335 450.312 396.335H396.431C396.191 396.335 395.962 396.24 395.792 396.071C395.623 395.901 395.528 395.671 395.528 395.432V361.027C395.528 360.908 395.504 360.791 395.459 360.681C395.414 360.572 395.347 360.472 395.263 360.388C395.179 360.304 395.08 360.238 394.97 360.192C394.861 360.147 394.743 360.124 394.625 360.124H371.261C371.142 360.124 371.025 360.147 370.915 360.192C370.806 360.238 370.706 360.304 370.622 360.388C370.539 360.472 370.472 360.572 370.427 360.681C370.381 360.791 370.358 360.908 370.358 361.027V395.408C370.358 395.647 370.263 395.877 370.093 396.047C369.924 396.216 369.694 396.311 369.455 396.311H352.223C351.984 396.311 351.754 396.407 351.585 396.576C351.415 396.745 351.32 396.975 351.32 397.215V421.919C351.32 422.158 351.415 422.388 351.585 422.558C351.754 422.727 351.984 422.822 352.223 422.822H369.431C369.671 422.822 369.9 422.917 370.07 423.087C370.239 423.256 370.334 423.486 370.334 423.726V476.01Z" stroke="#0B5F76" stroke-width="2"/>
<path d="M238.923 445.838C238.923 464.526 238.963 474.568 239.042 475.963C239.089 476.945 239.612 477.437 240.611 477.437H256.868C257.581 477.437 257.937 477.793 257.937 478.507V494.104C257.937 494.254 257.966 494.402 258.022 494.541C258.078 494.679 258.16 494.805 258.264 494.911C258.368 495.017 258.491 495.101 258.627 495.159C258.762 495.216 258.908 495.245 259.054 495.245C268.926 495.277 278.9 495.293 288.978 495.293C299.039 495.293 309.014 495.269 318.901 495.222C319.189 495.215 319.464 495.096 319.668 494.887C319.871 494.679 319.988 494.399 319.994 494.104V478.507C319.994 477.793 320.351 477.437 321.064 477.437H337.321C338.319 477.421 338.842 476.922 338.89 475.939C338.969 474.544 339.008 464.502 339.008 445.814C339.008 427.126 338.969 417.084 338.89 415.689C338.842 414.706 338.319 414.215 337.321 414.215H321.064C320.351 414.215 319.994 413.858 319.994 413.145V397.548C319.994 397.398 319.965 397.249 319.909 397.111C319.853 396.972 319.771 396.847 319.667 396.741C319.563 396.635 319.44 396.551 319.305 396.493C319.169 396.436 319.024 396.406 318.877 396.406C309.006 396.375 299.031 396.359 288.954 396.359C278.892 396.359 268.918 396.383 259.03 396.43C258.742 396.436 258.468 396.556 258.264 396.764C258.06 396.973 257.943 397.253 257.937 397.548V413.145C257.937 413.858 257.581 414.215 256.868 414.215H240.611C239.612 414.215 239.082 414.714 239.018 415.713C238.955 417.108 238.923 427.149 238.923 445.838Z" stroke="#0B5F76" stroke-width="2"/>
<path d="M144.613 427.649C144.629 441.059 144.685 454.548 144.78 468.116C144.786 468.308 144.864 468.489 144.997 468.622C145.13 468.755 145.308 468.83 145.493 468.83H192.125C192.822 468.83 193.171 468.481 193.171 467.783V442.033C193.171 441.146 192.727 440.702 191.84 440.702H158.232C157.44 440.702 156.941 440.242 156.735 439.323C156.545 438.53 156.45 434.631 156.45 427.625C156.434 420.619 156.521 416.719 156.711 415.927C156.917 415.007 157.416 414.548 158.208 414.548L191.816 414.476C192.703 414.476 193.147 414.033 193.147 413.145L193.099 387.395C193.083 386.698 192.727 386.349 192.03 386.349L145.398 386.444C145.209 386.444 145.027 386.522 144.894 386.66C144.76 386.798 144.685 386.986 144.685 387.181C144.621 400.734 144.598 414.223 144.613 427.649Z" stroke="#0B5F76" stroke-width="2"/>
<path d="M313.292 423.726C313.292 423.492 313.199 423.269 313.034 423.104C312.869 422.939 312.646 422.846 312.413 422.846H265.686C265.452 422.846 265.229 422.939 265.064 423.104C264.899 423.269 264.806 423.492 264.806 423.726V468.14C264.806 468.374 264.899 468.597 265.064 468.762C265.229 468.927 265.452 469.02 265.686 469.02H312.413C312.646 469.02 312.869 468.927 313.034 468.762C313.199 468.597 313.292 468.374 313.292 468.14V423.726Z" stroke="#0B5F76" stroke-width="2"/>
<path d="M589.519 95.9665C589.519 70.6356 579.46 46.3422 561.555 28.4306C543.65 10.519 519.366 0.456299 494.044 0.456299H95.0818C69.7604 0.456299 45.4761 10.519 27.5712 28.4306C9.6663 46.3422 -0.392578 70.6356 -0.392578 95.9665V519.664C-0.392578 532.206 2.07694 544.626 6.87497 556.214C11.673 567.802 18.7056 578.331 27.5712 587.2C36.4368 596.069 46.9618 603.104 58.5453 607.904C70.1288 612.704 82.5439 615.174 95.0818 615.174H494.044C506.582 615.174 518.997 612.704 530.581 607.904C542.164 603.104 552.689 596.069 561.555 587.2C570.42 578.331 577.453 567.802 582.251 556.214C587.049 544.626 589.519 532.206 589.519 519.664V95.9665Z" fill="white"/>
<path d="M589.519 519.664C589.519 532.206 587.049 544.626 582.251 556.214C577.453 567.802 570.42 578.331 561.555 587.2C552.689 596.069 542.164 603.104 530.581 607.904C518.997 612.704 506.582 615.174 494.044 615.174H95.0818C82.5439 615.174 70.1288 612.704 58.5453 607.904C46.9618 603.104 36.4368 596.069 27.5712 587.2C18.7056 578.331 11.673 567.802 6.87497 556.214C2.07694 544.626 -0.392578 532.206 -0.392578 519.664V95.9665C-0.392578 70.6356 9.6663 46.3422 27.5712 28.4306C45.4761 10.519 69.7604 0.456299 95.0818 0.456299H494.044C519.366 0.456299 543.65 10.519 561.555 28.4306C579.46 46.3422 589.519 70.6356 589.519 95.9665V519.664ZM391.772 247.09C415.112 247.09 427.527 247.138 429.016 247.233C429.919 247.28 430.371 247.756 430.371 248.659V290.078C430.371 290.855 429.983 291.243 429.206 291.243H354.338C353.594 291.243 353.221 290.863 353.221 290.102V263.329C353.221 263.245 353.204 263.162 353.171 263.084C353.137 263.006 353.088 262.935 353.026 262.875C352.965 262.816 352.891 262.769 352.811 262.736C352.73 262.704 352.643 262.687 352.556 262.687H315.217C314.896 262.687 314.587 262.815 314.36 263.043C314.133 263.27 314.005 263.578 314.005 263.9V302.775C314.005 303.71 314.472 304.177 315.407 304.177H341.742C342.518 304.177 342.906 304.566 342.906 305.342V331.734C342.906 331.923 342.984 332.105 343.122 332.239C343.26 332.373 343.448 332.448 343.643 332.448H439.403C439.743 332.448 440.069 332.312 440.31 332.072C440.551 331.831 440.686 331.504 440.686 331.164V305.556C440.686 304.59 441.169 304.106 442.136 304.106H468.47C469.215 304.106 469.587 303.734 469.587 302.989V235.083C469.587 234.955 469.562 234.828 469.513 234.71C469.464 234.592 469.393 234.484 469.302 234.394C469.212 234.303 469.104 234.231 468.986 234.182C468.868 234.133 468.741 234.108 468.613 234.108H441.708C441.011 234.108 440.662 233.759 440.662 233.062V207.05C440.662 206.764 440.553 206.49 440.358 206.285C440.162 206.081 439.896 205.963 439.617 205.957C435.972 205.877 420.024 205.838 391.772 205.838C368.448 205.838 356.034 205.798 354.529 205.719C353.625 205.655 353.174 205.172 353.174 204.269V162.85C353.174 162.073 353.562 161.685 354.338 161.685H429.206C429.951 161.685 430.323 162.065 430.323 162.826V189.598C430.323 189.769 430.394 189.932 430.518 190.052C430.643 190.173 430.812 190.24 430.989 190.24H468.328C468.649 190.24 468.958 190.113 469.185 189.885C469.412 189.658 469.54 189.349 469.54 189.028V150.153C469.54 149.218 469.072 148.75 468.138 148.75H441.803C441.027 148.75 440.639 148.362 440.639 147.585V121.193C440.639 121.004 440.561 120.823 440.423 120.689C440.285 120.555 440.097 120.48 439.902 120.48H344.142C343.974 120.48 343.807 120.513 343.651 120.578C343.495 120.642 343.354 120.737 343.235 120.856C343.115 120.975 343.021 121.117 342.956 121.273C342.892 121.428 342.859 121.595 342.859 121.764V147.371C342.859 148.338 342.375 148.822 341.409 148.822H315.074C314.33 148.822 313.957 149.194 313.957 149.939V217.845C313.957 218.103 314.06 218.351 314.243 218.534C314.426 218.717 314.673 218.82 314.932 218.82H341.837C342.534 218.82 342.882 219.168 342.882 219.866V245.877C342.882 246.163 342.992 246.438 343.187 246.642C343.383 246.847 343.649 246.965 343.928 246.971C347.588 247.05 363.537 247.09 391.772 247.09ZM196.997 247.09C220.305 247.106 232.712 247.153 234.217 247.233C235.12 247.296 235.572 247.78 235.572 248.683L235.548 290.078C235.548 290.855 235.16 291.243 234.384 291.243L159.563 291.195C158.818 291.195 158.446 290.815 158.446 290.054V263.306C158.446 263.135 158.376 262.972 158.251 262.852C158.126 262.731 157.957 262.664 157.781 262.664L120.466 262.64C120.144 262.64 119.836 262.768 119.608 262.995C119.381 263.222 119.253 263.531 119.253 263.852L119.23 302.703C119.23 303.638 119.697 304.106 120.632 304.106L146.966 304.13C147.743 304.13 148.131 304.518 148.131 305.295L148.107 331.663C148.107 331.757 148.126 331.849 148.163 331.936C148.2 332.022 148.255 332.101 148.323 332.167C148.391 332.234 148.473 332.286 148.562 332.322C148.651 332.358 148.747 332.376 148.844 332.376L244.556 332.424C244.896 332.424 245.223 332.289 245.464 332.048C245.704 331.807 245.84 331.48 245.84 331.14V305.556C245.84 304.59 246.323 304.106 247.289 304.106H273.624C274.368 304.106 274.741 303.734 274.741 302.989L274.765 235.13C274.765 234.872 274.662 234.624 274.479 234.441C274.296 234.258 274.049 234.156 273.79 234.156L246.909 234.132C246.212 234.132 245.863 233.783 245.863 233.086V207.098C245.863 206.812 245.754 206.537 245.559 206.333C245.363 206.128 245.097 206.01 244.817 206.004C241.173 205.925 225.241 205.877 197.021 205.862C173.697 205.846 161.29 205.798 159.801 205.719C158.898 205.655 158.446 205.172 158.446 204.269L158.47 162.874C158.47 162.097 158.858 161.709 159.635 161.709L234.455 161.756C235.2 161.756 235.572 162.137 235.572 162.897L235.548 189.646C235.548 189.816 235.618 189.979 235.743 190.1C235.868 190.22 236.037 190.288 236.214 190.288L273.529 190.312C273.85 190.312 274.159 190.184 274.386 189.957C274.613 189.729 274.741 189.421 274.741 189.099L274.765 150.248C274.765 149.313 274.297 148.845 273.362 148.845H247.052C246.275 148.845 245.887 148.457 245.887 147.68L245.911 121.288C245.911 121.099 245.833 120.918 245.695 120.784C245.557 120.65 245.369 120.575 245.174 120.575L149.462 120.528C149.122 120.528 148.795 120.663 148.554 120.904C148.314 121.144 148.179 121.471 148.179 121.812L148.155 147.419C148.155 148.386 147.671 148.869 146.705 148.869L120.394 148.845C119.65 148.845 119.277 149.218 119.277 149.963L119.253 217.821C119.253 217.949 119.279 218.076 119.328 218.194C119.377 218.312 119.448 218.42 119.539 218.51C119.629 218.601 119.737 218.673 119.855 218.722C119.973 218.771 120.1 218.796 120.228 218.796L147.109 218.82C147.806 218.82 148.155 219.168 148.155 219.866L148.131 245.854C148.131 246.14 148.24 246.414 148.436 246.619C148.631 246.823 148.897 246.941 149.177 246.947C152.837 247.027 168.777 247.074 196.997 247.09ZM119.515 427.673C119.531 459.375 119.539 475.519 119.539 476.105C119.554 477.04 120.03 477.508 120.965 477.508L136.865 477.437C137.594 477.437 137.958 477.793 137.958 478.507V493.914C137.958 494.086 137.992 494.256 138.058 494.414C138.124 494.573 138.22 494.717 138.341 494.839C138.463 494.96 138.607 495.056 138.765 495.122C138.924 495.188 139.094 495.222 139.266 495.222H198.708C199.58 495.222 200.016 494.786 200.016 493.914V478.459C200.016 477.762 200.372 477.413 201.085 477.413H217.699C218.586 477.413 219.03 476.969 219.03 476.082V433.474C219.03 432.634 218.602 432.214 217.746 432.214H201.347C200.507 432.214 200.079 431.786 200.063 430.93C200.063 430.66 200.063 429.559 200.063 427.625C200.063 425.675 200.063 424.574 200.063 424.32C200.079 423.464 200.507 423.036 201.347 423.036L217.746 423.012C218.602 423.012 219.03 422.592 219.03 421.752L218.982 379.145C218.982 378.257 218.538 377.813 217.651 377.813L201.038 377.837C200.325 377.837 199.968 377.488 199.968 376.791L199.944 361.336C199.944 360.464 199.509 360.028 198.637 360.028L139.194 360.1C138.848 360.1 138.515 360.237 138.27 360.483C138.025 360.728 137.887 361.061 137.887 361.407L137.911 376.815C137.911 377.528 137.547 377.885 136.818 377.885L120.917 377.813C119.982 377.813 119.507 378.289 119.491 379.24C119.491 379.826 119.499 395.971 119.515 427.673ZM370.334 476.01C370.334 476.25 370.429 476.48 370.599 476.649C370.768 476.818 370.998 476.914 371.237 476.914H387.114C387.353 476.914 387.583 477.009 387.753 477.178C387.922 477.348 388.017 477.578 388.017 477.817V494.366C388.017 494.605 388.112 494.835 388.282 495.004C388.451 495.174 388.681 495.269 388.92 495.269H450.312C450.551 495.269 450.781 495.174 450.951 495.004C451.12 494.835 451.215 494.605 451.215 494.366V478.435C451.215 478.196 451.31 477.966 451.48 477.796C451.649 477.627 451.879 477.532 452.118 477.532H468.803C469.043 477.532 469.272 477.437 469.442 477.267C469.611 477.098 469.706 476.868 469.706 476.628V451.354C469.706 451.114 469.611 450.885 469.442 450.715C469.272 450.546 469.043 450.45 468.803 450.45H445.44C445.2 450.45 444.97 450.546 444.801 450.715C444.632 450.885 444.536 451.114 444.536 451.354V468.093C444.536 468.332 444.441 468.562 444.272 468.731C444.102 468.901 443.873 468.996 443.633 468.996H396.431C396.191 468.996 395.962 468.901 395.792 468.731C395.623 468.562 395.528 468.332 395.528 468.093V423.749C395.528 423.51 395.623 423.28 395.792 423.111C395.962 422.941 396.191 422.846 396.431 422.846H450.312C450.431 422.846 450.548 422.823 450.658 422.777C450.767 422.732 450.867 422.665 450.951 422.581C451.034 422.497 451.101 422.398 451.146 422.288C451.192 422.179 451.215 422.061 451.215 421.942V397.239C451.215 396.999 451.12 396.769 450.951 396.6C450.781 396.43 450.551 396.335 450.312 396.335H396.431C396.191 396.335 395.962 396.24 395.792 396.07C395.623 395.901 395.528 395.671 395.528 395.432V361.027C395.528 360.908 395.504 360.791 395.459 360.681C395.414 360.572 395.347 360.472 395.263 360.388C395.179 360.304 395.08 360.238 394.97 360.192C394.861 360.147 394.743 360.123 394.624 360.123H371.261C371.142 360.123 371.025 360.147 370.915 360.192C370.806 360.238 370.706 360.304 370.622 360.388C370.538 360.472 370.472 360.572 370.427 360.681C370.381 360.791 370.358 360.908 370.358 361.027V395.408C370.358 395.647 370.263 395.877 370.093 396.047C369.924 396.216 369.694 396.311 369.455 396.311H352.223C351.984 396.311 351.754 396.406 351.584 396.576C351.415 396.745 351.32 396.975 351.32 397.215V421.919C351.32 422.158 351.415 422.388 351.584 422.557C351.754 422.727 351.984 422.822 352.223 422.822H369.431C369.67 422.822 369.9 422.917 370.07 423.087C370.239 423.256 370.334 423.486 370.334 423.726V476.01ZM238.923 445.838C238.923 464.526 238.963 474.568 239.042 475.963C239.09 476.945 239.612 477.437 240.611 477.437H256.868C257.581 477.437 257.937 477.793 257.937 478.507V494.104C257.937 494.254 257.966 494.402 258.022 494.541C258.078 494.679 258.161 494.805 258.264 494.911C258.368 495.017 258.491 495.101 258.627 495.159C258.762 495.216 258.908 495.245 259.054 495.245C268.926 495.277 278.9 495.293 288.978 495.293C299.039 495.293 309.014 495.269 318.901 495.222C319.189 495.215 319.464 495.096 319.668 494.888C319.871 494.679 319.988 494.399 319.994 494.104V478.507C319.994 477.793 320.351 477.437 321.064 477.437H337.321C338.319 477.421 338.842 476.922 338.89 475.939C338.969 474.544 339.008 464.502 339.008 445.814C339.008 427.126 338.969 417.084 338.89 415.689C338.842 414.706 338.319 414.215 337.321 414.215H321.064C320.351 414.215 319.994 413.858 319.994 413.145V397.548C319.994 397.398 319.966 397.249 319.909 397.111C319.853 396.972 319.771 396.847 319.667 396.741C319.564 396.635 319.44 396.551 319.305 396.493C319.169 396.436 319.024 396.406 318.877 396.406C309.006 396.375 299.031 396.359 288.954 396.359C278.892 396.359 268.918 396.383 259.03 396.43C258.742 396.436 258.468 396.556 258.264 396.764C258.06 396.973 257.943 397.253 257.937 397.548V413.145C257.937 413.858 257.581 414.215 256.868 414.215H240.611C239.612 414.215 239.082 414.714 239.018 415.713C238.955 417.108 238.923 427.149 238.923 445.838Z" fill="#16BDD2"/>
<path d="M391.773 247.09C363.537 247.09 347.589 247.05 343.928 246.971C343.649 246.965 343.383 246.847 343.187 246.642C342.992 246.438 342.882 246.163 342.883 245.877V219.866C342.883 219.168 342.534 218.82 341.837 218.82H314.932C314.674 218.82 314.426 218.717 314.243 218.534C314.06 218.351 313.958 218.103 313.958 217.845V149.939C313.958 149.194 314.33 148.822 315.075 148.822H341.409C342.376 148.822 342.859 148.338 342.859 147.371V121.764C342.859 121.595 342.892 121.428 342.957 121.273C343.021 121.117 343.116 120.975 343.235 120.856C343.354 120.737 343.495 120.642 343.651 120.578C343.807 120.513 343.974 120.48 344.142 120.48H439.902C440.097 120.48 440.285 120.555 440.423 120.689C440.561 120.823 440.639 121.004 440.639 121.193V147.585C440.639 148.362 441.027 148.75 441.803 148.75H468.138C469.073 148.75 469.54 149.218 469.54 150.153V189.028C469.54 189.349 469.412 189.658 469.185 189.885C468.958 190.112 468.649 190.24 468.328 190.24H430.989C430.813 190.24 430.643 190.173 430.518 190.052C430.394 189.932 430.324 189.769 430.324 189.598V162.826C430.324 162.065 429.951 161.685 429.206 161.685H354.339C353.562 161.685 353.174 162.073 353.174 162.85V204.268C353.174 205.172 353.626 205.655 354.529 205.719C356.034 205.798 368.449 205.838 391.773 205.838C420.024 205.838 435.972 205.877 439.617 205.957C439.896 205.963 440.162 206.081 440.358 206.285C440.553 206.49 440.663 206.764 440.662 207.05V233.062C440.662 233.759 441.011 234.108 441.708 234.108H468.613C468.741 234.108 468.868 234.133 468.986 234.182C469.104 234.231 469.212 234.303 469.302 234.393C469.393 234.484 469.464 234.591 469.513 234.71C469.562 234.828 469.588 234.955 469.588 235.083V302.988C469.588 303.733 469.215 304.106 468.471 304.106H442.136C441.17 304.106 440.686 304.589 440.686 305.556V331.164C440.686 331.504 440.551 331.831 440.31 332.071C440.07 332.312 439.743 332.447 439.403 332.447H343.643C343.448 332.447 343.26 332.372 343.122 332.239C342.984 332.105 342.906 331.923 342.906 331.734V305.342C342.906 304.566 342.518 304.177 341.742 304.177H315.407C314.472 304.177 314.005 303.71 314.005 302.774V263.9C314.005 263.578 314.133 263.27 314.36 263.042C314.587 262.815 314.896 262.687 315.217 262.687H352.556C352.643 262.687 352.73 262.704 352.811 262.736C352.891 262.768 352.965 262.816 353.027 262.875C353.088 262.935 353.137 263.006 353.171 263.084C353.204 263.161 353.222 263.245 353.222 263.329V290.102C353.222 290.862 353.594 291.243 354.339 291.243H429.206C429.983 291.243 430.371 290.854 430.371 290.078V248.659C430.371 247.756 429.92 247.28 429.016 247.233C427.527 247.137 415.112 247.09 391.773 247.09Z" fill="white"/>
<path d="M196.997 247.09C168.777 247.074 152.837 247.027 149.177 246.947C148.898 246.941 148.632 246.823 148.436 246.619C148.241 246.414 148.131 246.14 148.131 245.854L148.155 219.866C148.155 219.169 147.807 218.82 147.109 218.82L120.228 218.796C120.1 218.796 119.974 218.771 119.855 218.722C119.737 218.673 119.63 218.601 119.539 218.511C119.449 218.42 119.377 218.313 119.328 218.194C119.279 218.076 119.254 217.949 119.254 217.821L119.278 149.963C119.278 149.218 119.65 148.846 120.395 148.846L146.705 148.869C147.672 148.869 148.155 148.386 148.155 147.419L148.179 121.812C148.179 121.471 148.314 121.145 148.555 120.904C148.795 120.663 149.122 120.528 149.462 120.528L245.174 120.575C245.37 120.575 245.557 120.651 245.695 120.784C245.833 120.918 245.911 121.1 245.911 121.289L245.887 147.681C245.887 148.457 246.276 148.846 247.052 148.846H273.363C274.298 148.846 274.765 149.313 274.765 150.248L274.741 189.099C274.741 189.421 274.613 189.729 274.386 189.957C274.159 190.184 273.851 190.312 273.529 190.312L236.214 190.288C236.037 190.288 235.868 190.22 235.743 190.1C235.619 189.98 235.548 189.816 235.548 189.646L235.572 162.898C235.572 162.137 235.2 161.756 234.455 161.756L159.635 161.709C158.858 161.709 158.47 162.097 158.47 162.874L158.446 204.269C158.446 205.172 158.898 205.656 159.801 205.719C161.291 205.798 173.697 205.846 197.021 205.862C225.241 205.878 241.173 205.925 244.818 206.004C245.097 206.011 245.363 206.129 245.559 206.333C245.754 206.537 245.864 206.812 245.864 207.098V233.086C245.864 233.783 246.212 234.132 246.909 234.132L273.79 234.156C274.049 234.156 274.297 234.258 274.48 234.441C274.662 234.624 274.765 234.872 274.765 235.131L274.741 302.989C274.741 303.734 274.369 304.106 273.624 304.106H247.29C246.323 304.106 245.84 304.59 245.84 305.557V331.14C245.84 331.481 245.705 331.807 245.464 332.048C245.223 332.289 244.897 332.424 244.556 332.424L148.844 332.376C148.748 332.376 148.652 332.358 148.562 332.322C148.473 332.286 148.392 332.234 148.323 332.168C148.255 332.101 148.201 332.023 148.164 331.936C148.127 331.85 148.108 331.757 148.108 331.663L148.131 305.295C148.131 304.518 147.743 304.13 146.967 304.13L120.632 304.106C119.697 304.106 119.23 303.639 119.23 302.703L119.254 263.853C119.254 263.531 119.381 263.223 119.609 262.995C119.836 262.768 120.144 262.64 120.466 262.64L157.781 262.664C157.957 262.664 158.127 262.731 158.252 262.852C158.376 262.972 158.446 263.135 158.446 263.306V290.054C158.446 290.815 158.819 291.196 159.564 291.196L234.384 291.243C235.16 291.243 235.548 290.855 235.548 290.078L235.572 248.683C235.572 247.78 235.121 247.296 234.217 247.233C232.712 247.154 220.306 247.106 196.997 247.09Z" fill="white"/>
<path d="M200.064 427.625C200.064 429.559 200.064 430.66 200.064 430.93C200.079 431.786 200.507 432.214 201.347 432.214H217.747C218.602 432.214 219.03 432.634 219.03 433.474V476.081C219.03 476.969 218.586 477.413 217.699 477.413H201.086C200.372 477.413 200.016 477.762 200.016 478.459V493.914C200.016 494.786 199.58 495.222 198.709 495.222H139.266C139.094 495.222 138.924 495.188 138.766 495.122C138.607 495.056 138.463 494.96 138.342 494.838C138.22 494.717 138.124 494.573 138.058 494.414C137.993 494.256 137.959 494.086 137.959 493.914V478.507C137.959 477.793 137.594 477.437 136.866 477.437L120.965 477.508C120.03 477.508 119.555 477.04 119.539 476.105C119.539 475.519 119.531 459.374 119.515 427.672C119.499 395.97 119.491 379.826 119.491 379.24C119.507 378.289 119.983 377.813 120.918 377.813L136.818 377.884C137.547 377.884 137.911 377.528 137.911 376.815L137.888 361.407C137.888 361.061 138.025 360.728 138.27 360.483C138.516 360.237 138.848 360.1 139.195 360.1L198.637 360.028C199.509 360.028 199.945 360.464 199.945 361.336L199.968 376.791C199.968 377.488 200.325 377.837 201.038 377.837L217.652 377.813C218.539 377.813 218.983 378.257 218.983 379.145L219.03 421.752C219.03 422.592 218.602 423.012 217.747 423.012L201.347 423.036C200.507 423.036 200.079 423.464 200.064 424.32C200.064 424.574 200.064 425.675 200.064 427.625ZM144.614 427.649C144.63 441.059 144.685 454.548 144.78 468.116C144.786 468.308 144.864 468.489 144.997 468.622C145.13 468.755 145.308 468.83 145.493 468.83H192.125C192.822 468.83 193.171 468.481 193.171 467.783V442.033C193.171 441.146 192.727 440.702 191.84 440.702H158.233C157.44 440.702 156.941 440.242 156.735 439.323C156.545 438.53 156.45 434.631 156.45 427.625C156.434 420.619 156.521 416.719 156.711 415.927C156.917 415.008 157.417 414.548 158.209 414.548L191.816 414.477C192.704 414.477 193.147 414.033 193.147 413.145L193.1 387.395C193.084 386.698 192.727 386.349 192.03 386.349L145.398 386.444C145.209 386.444 145.028 386.522 144.894 386.66C144.76 386.798 144.685 386.986 144.685 387.181C144.622 400.734 144.598 414.223 144.614 427.649Z" fill="#00011A"/>
<path d="M370.334 476.01V423.726C370.334 423.486 370.239 423.256 370.07 423.087C369.9 422.917 369.671 422.822 369.431 422.822H352.223C351.984 422.822 351.754 422.727 351.585 422.558C351.415 422.388 351.32 422.158 351.32 421.919V397.215C351.32 396.975 351.415 396.745 351.585 396.576C351.754 396.407 351.984 396.311 352.223 396.311H369.455C369.695 396.311 369.924 396.216 370.094 396.047C370.263 395.877 370.358 395.647 370.358 395.408V361.027C370.358 360.908 370.381 360.791 370.427 360.681C370.472 360.572 370.539 360.472 370.623 360.388C370.707 360.304 370.806 360.238 370.916 360.192C371.025 360.147 371.143 360.124 371.261 360.124H394.625C394.743 360.124 394.861 360.147 394.97 360.192C395.08 360.238 395.18 360.304 395.263 360.388C395.347 360.472 395.414 360.572 395.459 360.681C395.505 360.791 395.528 360.908 395.528 361.027V395.432C395.528 395.671 395.623 395.901 395.793 396.071C395.962 396.24 396.192 396.335 396.431 396.335H450.312C450.552 396.335 450.782 396.43 450.951 396.6C451.12 396.769 451.215 396.999 451.215 397.239V421.942C451.215 422.061 451.192 422.179 451.147 422.288C451.101 422.398 451.035 422.497 450.951 422.581C450.867 422.665 450.767 422.732 450.658 422.777C450.548 422.823 450.431 422.846 450.312 422.846H396.431C396.192 422.846 395.962 422.941 395.793 423.111C395.623 423.28 395.528 423.51 395.528 423.749V468.093C395.528 468.332 395.623 468.562 395.793 468.732C395.962 468.901 396.192 468.996 396.431 468.996H443.634C443.873 468.996 444.103 468.901 444.272 468.732C444.442 468.562 444.537 468.332 444.537 468.093V451.354C444.537 451.114 444.632 450.885 444.801 450.715C444.971 450.546 445.2 450.45 445.44 450.45H468.803C469.043 450.45 469.273 450.546 469.442 450.715C469.611 450.885 469.707 451.114 469.707 451.354V476.628C469.707 476.868 469.611 477.098 469.442 477.267C469.273 477.437 469.043 477.532 468.803 477.532H452.119C451.879 477.532 451.649 477.627 451.48 477.797C451.311 477.966 451.215 478.196 451.215 478.435V494.366C451.215 494.605 451.12 494.835 450.951 495.005C450.782 495.174 450.552 495.269 450.312 495.269H388.921C388.681 495.269 388.451 495.174 388.282 495.005C388.113 494.835 388.017 494.605 388.017 494.366V477.817C388.017 477.578 387.922 477.348 387.753 477.178C387.584 477.009 387.354 476.914 387.114 476.914H371.238C370.998 476.914 370.768 476.819 370.599 476.649C370.43 476.48 370.334 476.25 370.334 476.01Z" fill="#00011A"/>
<path d="M156.45 427.625C156.45 434.631 156.545 438.531 156.735 439.323C156.941 440.243 157.44 440.702 158.232 440.702H191.84C192.727 440.702 193.171 441.146 193.171 442.034V467.784C193.171 468.481 192.822 468.83 192.125 468.83H145.493C145.308 468.83 145.13 468.755 144.997 468.622C144.864 468.489 144.786 468.308 144.78 468.117C144.685 454.548 144.629 441.059 144.614 427.649C144.598 414.223 144.622 400.734 144.685 387.181C144.685 386.986 144.76 386.798 144.894 386.66C145.028 386.522 145.209 386.444 145.398 386.444L192.03 386.349C192.727 386.349 193.084 386.698 193.099 387.395L193.147 413.145C193.147 414.033 192.703 414.477 191.816 414.477L158.209 414.548C157.416 414.548 156.917 415.008 156.711 415.927C156.521 416.72 156.434 420.619 156.45 427.625Z" fill="#16BDD2"/>
<path d="M288.954 396.359C299.032 396.359 309.006 396.375 318.877 396.406C319.024 396.406 319.169 396.436 319.305 396.493C319.441 396.551 319.564 396.635 319.667 396.741C319.771 396.847 319.853 396.972 319.91 397.111C319.966 397.249 319.995 397.398 319.995 397.548V413.145C319.995 413.858 320.351 414.215 321.064 414.215H337.321C338.319 414.215 338.842 414.706 338.89 415.689C338.969 417.084 339.009 427.126 339.009 445.814C339.009 464.502 338.969 474.544 338.89 475.939C338.842 476.922 338.319 477.421 337.321 477.437H321.064C320.351 477.437 319.995 477.793 319.995 478.507V494.104C319.989 494.399 319.872 494.679 319.668 494.887C319.464 495.096 319.189 495.215 318.901 495.222C309.014 495.269 299.039 495.293 288.978 495.293C278.9 495.293 268.926 495.277 259.054 495.245C258.908 495.245 258.762 495.216 258.627 495.159C258.491 495.101 258.368 495.017 258.264 494.911C258.161 494.805 258.078 494.679 258.022 494.541C257.966 494.402 257.937 494.254 257.937 494.104V478.507C257.937 477.793 257.581 477.437 256.868 477.437H240.611C239.613 477.437 239.09 476.945 239.042 475.963C238.963 474.568 238.923 464.526 238.923 445.838C238.923 427.149 238.955 417.108 239.018 415.713C239.082 414.714 239.613 414.215 240.611 414.215H256.868C257.581 414.215 257.937 413.858 257.937 413.145V397.548C257.943 397.253 258.06 396.973 258.264 396.764C258.468 396.556 258.742 396.436 259.031 396.43C268.918 396.383 278.892 396.359 288.954 396.359ZM313.292 423.726C313.292 423.492 313.199 423.269 313.034 423.104C312.87 422.939 312.646 422.846 312.413 422.846H265.686C265.452 422.846 265.229 422.939 265.064 423.104C264.899 423.269 264.806 423.492 264.806 423.726V468.14C264.806 468.373 264.899 468.597 265.064 468.762C265.229 468.927 265.452 469.02 265.686 469.02H312.413C312.646 469.02 312.87 468.927 313.034 468.762C313.199 468.597 313.292 468.373 313.292 468.14V423.726Z" fill="#00011A"/>
<path d="M312.413 422.846H265.686C265.2 422.846 264.806 423.24 264.806 423.726V468.14C264.806 468.626 265.2 469.02 265.686 469.02H312.413C312.898 469.02 313.292 468.626 313.292 468.14V423.726C313.292 423.24 312.898 422.846 312.413 422.846Z" fill="#16BDD2"/>
</g>
<defs>
<clipPath id="clip0_3407_213">
<rect width="590" height="615" fill="white"/>
</clipPath>
</defs>
</svg>
