<svg width="719" height="228" viewBox="0 0 719 228" fill="none" xmlns="http://www.w3.org/2000/svg">
<path d="M718.878 28.7286L671.934 28.8911C670.259 28.9182 669.488 29.758 669.624 31.4104L669.745 32.9952C669.776 33.3945 669.96 33.7674 670.261 34.0388C670.562 34.3102 670.957 34.46 671.367 34.458L719 34.8237L718.919 67.7783L672.786 67.6564C671.164 67.6564 670.38 68.4691 670.434 70.0945L670.515 71.7605C670.569 73.2775 671.353 74.036 672.867 74.036L719 73.9954L718.919 108.169L672.745 108.128C672.465 108.128 672.187 108.184 671.929 108.293C671.67 108.402 671.436 108.561 671.24 108.761C671.044 108.962 670.889 109.2 670.786 109.461C670.682 109.722 670.632 110.001 670.637 110.282V111.664C670.664 113.099 671.394 113.817 672.826 113.817H719L718.959 148.803L671.732 148.641C671.272 148.64 670.83 148.813 670.498 149.123C670.166 149.433 669.969 149.857 669.948 150.307L669.907 151.77C669.799 153.72 670.718 154.695 672.664 154.695L718.959 154.899V187.609L671.853 187.691C670.826 187.691 670.137 188.178 669.786 189.153L669.38 190.291C669.242 190.654 669.195 191.044 669.241 191.43C669.287 191.815 669.425 192.183 669.644 192.503C669.864 192.822 670.157 193.084 670.499 193.265C670.842 193.446 671.223 193.541 671.61 193.542L718.838 193.623L718.514 225.765C718.487 227.255 717.73 228 716.243 228L2.43234 227.716C1.16212 227.716 0.513494 227.079 0.486468 225.806L0.121616 192.811L46.2956 192.973C48.1874 192.973 49.1468 192.025 49.1738 190.129L49.2144 188.991C49.2144 188.506 49.0264 188.041 48.6919 187.698C48.3574 187.355 47.9037 187.162 47.4307 187.162L0.0405399 187L0.162156 153.72L46.6604 153.842C48.6063 153.842 49.4981 152.88 49.336 150.957L49.2144 149.697C49.183 149.27 48.9928 148.872 48.6833 148.584C48.3739 148.297 47.9688 148.142 47.5523 148.153L0.081076 148.194L0 113.004L47.228 112.964C47.6157 112.949 47.986 112.799 48.2747 112.539C48.5635 112.279 48.7525 111.926 48.809 111.542L48.9711 109.997C49.2144 108.264 48.4576 107.397 46.701 107.397L0.0405399 107.194V73.1827L46.8631 73.3452C47.3373 73.3469 47.7941 73.1714 48.1405 72.8544C48.487 72.5373 48.697 72.1026 48.7279 71.6386L48.809 70.1351C48.9711 68.0763 48.0252 67.0469 45.9712 67.0469L0.081076 67.1281V33.686H47.5928C48.0498 33.6887 48.4909 33.5233 48.8287 33.2223C49.1665 32.9213 49.3765 32.5067 49.4171 32.0606L49.4981 30.7197C49.6333 29.2026 48.9441 28.4441 47.4307 28.4441L0.121616 28.4035L0.0405399 1.21903C0.0405399 1.05895 0.0719955 0.90043 0.133114 0.75253C0.194232 0.60463 0.283815 0.470244 0.396747 0.357046C0.509679 0.243848 0.64375 0.154054 0.791302 0.0927918C0.938855 0.0315296 1.097 0 1.25671 0L716.203 0.28444C717.797 0.28444 718.608 1.08359 718.635 2.68187L718.878 28.7286Z" fill="#005DAF"/>
<path d="M167.489 89.8612C167.875 85.6264 166.846 82.3113 164.401 79.9159C161.956 77.4777 157.839 76.2586 152.049 76.2586C148.361 76.2586 145.273 76.6863 142.785 77.5418C140.341 78.3973 138.432 79.5737 137.06 81.0708C135.73 82.568 134.894 84.3004 134.551 86.2681C134.165 87.808 134.186 89.2196 134.615 90.5029C135.087 91.7433 135.966 92.8769 137.253 93.9035C138.582 94.9301 140.319 95.8498 142.464 96.6625C144.651 97.4753 147.246 98.2025 150.248 98.8441L160.541 101.154C167.575 102.694 173.472 104.726 178.233 107.25C183.036 109.731 186.81 112.682 189.555 116.104C192.3 119.526 194.101 123.355 194.959 127.589C195.86 131.824 195.881 136.444 195.023 141.449C193.565 150.089 190.198 157.404 184.923 163.393C179.648 169.381 172.764 173.937 164.272 177.059C155.78 180.182 145.959 181.743 134.808 181.743C123.4 181.743 113.707 180.054 105.73 176.674C97.7953 173.252 92.0482 168.034 88.4885 161.019C84.9716 153.961 84.1139 144.956 85.9152 134.006H119.883C119.368 138.027 119.797 141.406 121.169 144.144C122.542 146.881 124.751 148.956 127.796 150.367C130.841 151.779 134.636 152.485 139.183 152.485C143.043 152.485 146.345 152.014 149.09 151.073C151.835 150.132 154.001 148.827 155.587 147.159C157.174 145.491 158.139 143.587 158.482 141.449C158.826 139.481 158.482 137.727 157.453 136.187C156.424 134.647 154.558 133.257 151.856 132.017C149.154 130.776 145.444 129.643 140.727 128.616L128.117 125.793C116.924 123.226 108.475 118.991 102.77 113.088C97.0662 107.185 95.0504 99.1008 96.7231 88.8346C98.0955 80.4506 101.548 73.1359 107.081 66.8907C112.656 60.6027 119.733 55.7262 128.31 52.2614C136.931 48.7538 146.474 47 156.938 47C167.575 47 176.474 48.7752 183.636 52.3256C190.842 55.876 196.01 60.8593 199.141 67.2757C202.314 73.692 203.172 81.2205 201.714 89.8612H167.489Z" fill="white"/>
<path d="M288.145 89.8612C288.531 85.6264 287.502 82.3113 285.057 79.9159C282.612 77.4777 278.495 76.2586 272.705 76.2586C269.017 76.2586 265.929 76.6863 263.441 77.5418C260.996 78.3973 259.088 79.5737 257.716 81.0708C256.386 82.568 255.55 84.3004 255.207 86.2681C254.821 87.808 254.842 89.2196 255.271 90.5029C255.743 91.7433 256.622 92.8769 257.909 93.9035C259.238 94.9301 260.975 95.8498 263.119 96.6625C265.307 97.4753 267.902 98.2025 270.904 98.8441L281.197 101.154C288.231 102.694 294.128 104.726 298.888 107.25C303.692 109.731 307.466 112.682 310.211 116.104C312.956 119.526 314.757 123.355 315.615 127.589C316.516 131.824 316.537 136.444 315.679 141.449C314.221 150.089 310.854 157.404 305.579 163.393C300.304 169.381 293.42 173.937 284.928 177.059C276.436 180.182 266.615 181.743 255.464 181.743C244.056 181.743 234.363 180.054 226.386 176.674C218.451 173.252 212.704 168.034 209.144 161.019C205.628 153.961 204.77 144.956 206.571 134.006H240.539C240.024 138.027 240.453 141.406 241.825 144.144C243.198 146.881 245.407 148.956 248.452 150.367C251.497 151.779 255.292 152.485 259.839 152.485C263.698 152.485 267.001 152.014 269.746 151.073C272.491 150.132 274.656 148.827 276.243 147.159C277.83 145.491 278.795 143.587 279.138 141.449C279.481 139.481 279.138 137.727 278.109 136.187C277.08 134.647 275.214 133.257 272.512 132.017C269.81 130.776 266.1 129.643 261.382 128.616L248.773 125.793C237.579 123.226 229.13 118.991 223.426 113.088C217.722 107.185 215.706 99.1008 217.379 88.8346C218.751 80.4506 222.204 73.1359 227.737 66.8907C233.312 60.6027 240.389 55.7262 248.966 52.2614C257.587 48.7538 267.13 47 277.594 47C288.231 47 297.13 48.7752 304.292 52.3256C311.498 55.876 316.666 60.8593 319.797 67.2757C322.97 73.692 323.828 81.2205 322.37 89.8612H288.145Z" fill="white"/>
<path d="M322.852 180.203L344.725 48.7966H401.853C411.889 48.7966 420.102 50.144 426.492 52.8389C432.925 55.5337 437.472 59.3408 440.131 64.26C442.833 69.1792 443.626 74.9753 442.511 81.6483C441.653 86.4392 439.809 90.8237 436.978 94.8018C434.191 98.7372 430.652 102.074 426.364 104.811C422.118 107.506 417.378 109.367 412.146 110.394L411.889 111.677C417.55 111.848 422.482 113.26 426.685 115.912C430.888 118.521 433.976 122.157 435.949 126.819C437.922 131.439 438.394 136.829 437.364 142.989C436.164 150.175 433.226 156.57 428.551 162.173C423.876 167.777 417.807 172.183 410.345 175.391C402.882 178.599 394.39 180.203 384.869 180.203H322.852ZM363.511 151.715H380.237C386.156 151.715 390.809 150.581 394.197 148.314C397.628 146.047 399.666 142.732 400.309 138.369C400.824 135.289 400.566 132.68 399.537 130.541C398.508 128.402 396.771 126.777 394.326 125.664C391.881 124.552 388.815 123.996 385.126 123.996H367.885L363.511 151.715ZM371.745 101.924H386.413C389.501 101.924 392.332 101.432 394.905 100.448C397.478 99.4644 399.601 98.0314 401.274 96.1492C402.946 94.2671 403.997 92 404.426 89.3479C405.069 85.2414 404.083 82.1188 401.467 79.98C398.894 77.8413 395.42 76.7719 391.045 76.7719H375.862L371.745 101.924Z" fill="white"/>
<path d="M491.726 182C481.003 182 472.168 179.883 465.22 175.648C458.315 171.37 453.469 165.424 450.681 157.81C447.894 150.154 447.336 141.278 449.009 131.183C450.681 121.087 454.177 112.233 459.495 104.619C464.813 96.962 471.654 91.0162 480.017 86.7814C488.38 82.5038 497.944 80.365 508.709 80.365C519.389 80.365 528.181 82.5038 535.086 86.7814C542.034 91.0162 546.901 96.962 549.689 104.619C552.52 112.233 553.099 121.087 551.426 131.183C549.754 141.278 546.237 150.154 540.876 157.81C535.515 165.424 528.652 171.37 520.289 175.648C511.969 179.883 502.448 182 491.726 182ZM496.1 155.821C499.188 155.821 501.997 154.816 504.528 152.806C507.101 150.795 509.288 147.929 511.09 144.208C512.934 140.486 514.285 136.059 515.143 130.926C516 125.75 516.129 121.323 515.529 117.644C514.928 113.923 513.684 111.057 511.797 109.046C509.91 107.036 507.423 106.03 504.335 106.03C501.247 106.03 498.416 107.036 495.843 109.046C493.269 111.057 491.082 113.923 489.281 117.644C487.48 121.323 486.15 125.75 485.292 130.926C484.435 136.059 484.284 140.486 484.842 144.208C485.442 147.929 486.686 150.795 488.573 152.806C490.503 154.816 493.012 155.821 496.1 155.821Z" fill="white"/>
<path d="M633 81.6483L628.625 107.314H563.521L567.895 81.6483H633ZM584.365 58.0361H619.876L604.822 148.507C604.608 149.875 604.651 151.03 604.951 151.971C605.251 152.87 605.852 153.554 606.752 154.025C607.696 154.452 608.94 154.666 610.484 154.666C611.513 154.666 612.778 154.538 614.279 154.281C615.78 153.982 616.917 153.768 617.689 153.64L618.718 178.535C616.917 179.048 614.494 179.626 611.449 180.268C608.446 180.952 604.951 181.401 600.962 181.615C592.642 182 585.866 181.123 580.633 178.984C575.444 176.846 571.841 173.509 569.825 168.975C567.853 164.398 567.509 158.687 568.796 151.843L584.365 58.0361Z" fill="white"/>
</svg>
